<mxfile host="app.diagrams.net" agent="Mozilla/5.0 (Windows NT 10.0; Win64; x64) AppleWebKit/537.36 (KHTML, like Gecko) Chrome/131.0.0.0 Safari/537.36 Edg/131.0.0.0" version="25.0.3">
  <diagram id="C5RBs43oDa-KdzZeNtuy" name="Page-1">
    <mxGraphModel dx="1554" dy="398" grid="1" gridSize="10" guides="1" tooltips="1" connect="1" arrows="1" fold="1" page="1" pageScale="1" pageWidth="827" pageHeight="1169" math="0" shadow="0">
      <root>
        <mxCell id="WIyWlLk6GJQsqaUBKTNV-0" />
        <mxCell id="WIyWlLk6GJQsqaUBKTNV-1" parent="WIyWlLk6GJQsqaUBKTNV-0" />
        <mxCell id="mvioNwK95yMqdUQ73LqQ-36" value="" style="swimlane;fontFamily=Sarabun;fontSource=https%3A%2F%2Ffonts.googleapis.com%2Fcss%3Ffamily%3DSarabun;" parent="WIyWlLk6GJQsqaUBKTNV-1" vertex="1">
          <mxGeometry x="-710" y="30" width="660" height="2910" as="geometry" />
        </mxCell>
        <mxCell id="mvioNwK95yMqdUQ73LqQ-35" value="&lt;font data-font-src=&quot;https://fonts.googleapis.com/css?family=Sarabun&quot; face=&quot;Sarabun&quot;&gt;Start&lt;/font&gt;" style="ellipse;whiteSpace=wrap;html=1;" parent="mvioNwK95yMqdUQ73LqQ-36" vertex="1">
          <mxGeometry x="255" y="40" width="130" height="30" as="geometry" />
        </mxCell>
        <mxCell id="QNhVIbcrn-Icenjs99R--4" style="edgeStyle=orthogonalEdgeStyle;rounded=0;orthogonalLoop=1;jettySize=auto;html=1;entryX=0.5;entryY=0;entryDx=0;entryDy=0;" parent="mvioNwK95yMqdUQ73LqQ-36" source="mvioNwK95yMqdUQ73LqQ-35" edge="1" target="gRQjGZCakG9Ypz3SkYGl-1">
          <mxGeometry relative="1" as="geometry">
            <mxPoint x="320" y="220" as="targetPoint" />
          </mxGeometry>
        </mxCell>
        <mxCell id="gRQjGZCakG9Ypz3SkYGl-3" style="edgeStyle=orthogonalEdgeStyle;rounded=0;orthogonalLoop=1;jettySize=auto;html=1;" edge="1" parent="mvioNwK95yMqdUQ73LqQ-36" source="gRQjGZCakG9Ypz3SkYGl-1">
          <mxGeometry relative="1" as="geometry">
            <mxPoint x="320" y="480" as="targetPoint" />
          </mxGeometry>
        </mxCell>
        <mxCell id="gRQjGZCakG9Ypz3SkYGl-1" value="i = 0" style="rounded=0;whiteSpace=wrap;html=1;" vertex="1" parent="mvioNwK95yMqdUQ73LqQ-36">
          <mxGeometry x="260" y="350" width="120" height="60" as="geometry" />
        </mxCell>
        <mxCell id="gRQjGZCakG9Ypz3SkYGl-5" style="edgeStyle=orthogonalEdgeStyle;rounded=0;orthogonalLoop=1;jettySize=auto;html=1;" edge="1" parent="mvioNwK95yMqdUQ73LqQ-36" source="gRQjGZCakG9Ypz3SkYGl-4">
          <mxGeometry relative="1" as="geometry">
            <mxPoint x="320" y="590" as="targetPoint" />
          </mxGeometry>
        </mxCell>
        <mxCell id="gRQjGZCakG9Ypz3SkYGl-4" value="Display &quot;Input value to Array1&quot;" style="shape=parallelogram;perimeter=parallelogramPerimeter;whiteSpace=wrap;html=1;fixedSize=1;" vertex="1" parent="mvioNwK95yMqdUQ73LqQ-36">
          <mxGeometry x="227.5" y="480" width="185" height="60" as="geometry" />
        </mxCell>
        <mxCell id="gRQjGZCakG9Ypz3SkYGl-7" style="edgeStyle=orthogonalEdgeStyle;rounded=0;orthogonalLoop=1;jettySize=auto;html=1;" edge="1" parent="mvioNwK95yMqdUQ73LqQ-36" source="gRQjGZCakG9Ypz3SkYGl-6">
          <mxGeometry relative="1" as="geometry">
            <mxPoint x="320" y="720" as="targetPoint" />
          </mxGeometry>
        </mxCell>
        <mxCell id="gRQjGZCakG9Ypz3SkYGl-6" value="Read number" style="shape=parallelogram;perimeter=parallelogramPerimeter;whiteSpace=wrap;html=1;fixedSize=1;" vertex="1" parent="mvioNwK95yMqdUQ73LqQ-36">
          <mxGeometry x="260" y="590" width="120" height="60" as="geometry" />
        </mxCell>
        <mxCell id="gRQjGZCakG9Ypz3SkYGl-14" style="edgeStyle=orthogonalEdgeStyle;rounded=0;orthogonalLoop=1;jettySize=auto;html=1;entryX=0.5;entryY=0;entryDx=0;entryDy=0;" edge="1" parent="mvioNwK95yMqdUQ73LqQ-36" source="gRQjGZCakG9Ypz3SkYGl-8" target="gRQjGZCakG9Ypz3SkYGl-13">
          <mxGeometry relative="1" as="geometry">
            <Array as="points">
              <mxPoint x="30" y="765" />
              <mxPoint x="30" y="1440" />
              <mxPoint x="310" y="1440" />
              <mxPoint x="310" y="1540" />
            </Array>
          </mxGeometry>
        </mxCell>
        <mxCell id="gRQjGZCakG9Ypz3SkYGl-16" style="edgeStyle=orthogonalEdgeStyle;rounded=0;orthogonalLoop=1;jettySize=auto;html=1;" edge="1" parent="mvioNwK95yMqdUQ73LqQ-36" source="gRQjGZCakG9Ypz3SkYGl-8">
          <mxGeometry relative="1" as="geometry">
            <mxPoint x="320" y="870" as="targetPoint" />
          </mxGeometry>
        </mxCell>
        <mxCell id="gRQjGZCakG9Ypz3SkYGl-8" value="number equal -1" style="rhombus;whiteSpace=wrap;html=1;" vertex="1" parent="mvioNwK95yMqdUQ73LqQ-36">
          <mxGeometry x="275" y="720" width="90" height="90" as="geometry" />
        </mxCell>
        <mxCell id="gRQjGZCakG9Ypz3SkYGl-12" value="No" style="text;html=1;align=center;verticalAlign=middle;resizable=0;points=[];autosize=1;strokeColor=none;fillColor=none;" vertex="1" parent="mvioNwK95yMqdUQ73LqQ-36">
          <mxGeometry x="330" y="800" width="40" height="30" as="geometry" />
        </mxCell>
        <mxCell id="gRQjGZCakG9Ypz3SkYGl-27" style="edgeStyle=orthogonalEdgeStyle;rounded=0;orthogonalLoop=1;jettySize=auto;html=1;" edge="1" parent="mvioNwK95yMqdUQ73LqQ-36" source="gRQjGZCakG9Ypz3SkYGl-13">
          <mxGeometry relative="1" as="geometry">
            <mxPoint x="310" y="1670" as="targetPoint" />
          </mxGeometry>
        </mxCell>
        <mxCell id="gRQjGZCakG9Ypz3SkYGl-13" value="Display &quot;Array1 : &quot;" style="shape=parallelogram;perimeter=parallelogramPerimeter;whiteSpace=wrap;html=1;fixedSize=1;" vertex="1" parent="mvioNwK95yMqdUQ73LqQ-36">
          <mxGeometry x="250" y="1550" width="120" height="60" as="geometry" />
        </mxCell>
        <mxCell id="gRQjGZCakG9Ypz3SkYGl-19" style="edgeStyle=orthogonalEdgeStyle;rounded=0;orthogonalLoop=1;jettySize=auto;html=1;" edge="1" parent="mvioNwK95yMqdUQ73LqQ-36" source="gRQjGZCakG9Ypz3SkYGl-18">
          <mxGeometry relative="1" as="geometry">
            <mxPoint x="320" y="1040" as="targetPoint" />
          </mxGeometry>
        </mxCell>
        <mxCell id="gRQjGZCakG9Ypz3SkYGl-23" style="edgeStyle=orthogonalEdgeStyle;rounded=0;orthogonalLoop=1;jettySize=auto;html=1;entryX=1;entryY=0.5;entryDx=0;entryDy=0;" edge="1" parent="mvioNwK95yMqdUQ73LqQ-36" source="gRQjGZCakG9Ypz3SkYGl-18" target="gRQjGZCakG9Ypz3SkYGl-22">
          <mxGeometry relative="1" as="geometry">
            <Array as="points">
              <mxPoint x="430" y="925" />
              <mxPoint x="430" y="1160" />
            </Array>
          </mxGeometry>
        </mxCell>
        <mxCell id="gRQjGZCakG9Ypz3SkYGl-18" value="Check if capacity of array max" style="rhombus;whiteSpace=wrap;html=1;" vertex="1" parent="mvioNwK95yMqdUQ73LqQ-36">
          <mxGeometry x="270" y="870" width="100" height="110" as="geometry" />
        </mxCell>
        <mxCell id="gRQjGZCakG9Ypz3SkYGl-21" style="edgeStyle=orthogonalEdgeStyle;rounded=0;orthogonalLoop=1;jettySize=auto;html=1;" edge="1" parent="mvioNwK95yMqdUQ73LqQ-36" source="gRQjGZCakG9Ypz3SkYGl-20">
          <mxGeometry relative="1" as="geometry">
            <mxPoint x="315" y="1150" as="targetPoint" />
          </mxGeometry>
        </mxCell>
        <mxCell id="gRQjGZCakG9Ypz3SkYGl-20" value="re assign new size for store value" style="rounded=0;whiteSpace=wrap;html=1;" vertex="1" parent="mvioNwK95yMqdUQ73LqQ-36">
          <mxGeometry x="255" y="1040" width="120" height="60" as="geometry" />
        </mxCell>
        <mxCell id="gRQjGZCakG9Ypz3SkYGl-26" style="edgeStyle=orthogonalEdgeStyle;rounded=0;orthogonalLoop=1;jettySize=auto;html=1;" edge="1" parent="mvioNwK95yMqdUQ73LqQ-36" source="gRQjGZCakG9Ypz3SkYGl-22">
          <mxGeometry relative="1" as="geometry">
            <mxPoint x="315" y="1240" as="targetPoint" />
          </mxGeometry>
        </mxCell>
        <mxCell id="gRQjGZCakG9Ypz3SkYGl-22" value="" style="ellipse;whiteSpace=wrap;html=1;aspect=fixed;" vertex="1" parent="mvioNwK95yMqdUQ73LqQ-36">
          <mxGeometry x="305" y="1150" width="20" height="20" as="geometry" />
        </mxCell>
        <mxCell id="gRQjGZCakG9Ypz3SkYGl-25" value="store number to array" style="rounded=0;whiteSpace=wrap;html=1;" vertex="1" parent="mvioNwK95yMqdUQ73LqQ-36">
          <mxGeometry x="255" y="1240" width="120" height="60" as="geometry" />
        </mxCell>
        <mxCell id="gRQjGZCakG9Ypz3SkYGl-33" style="edgeStyle=orthogonalEdgeStyle;rounded=0;orthogonalLoop=1;jettySize=auto;html=1;" edge="1" parent="mvioNwK95yMqdUQ73LqQ-36" source="gRQjGZCakG9Ypz3SkYGl-28">
          <mxGeometry relative="1" as="geometry">
            <mxPoint x="305" y="1830" as="targetPoint" />
          </mxGeometry>
        </mxCell>
        <mxCell id="gRQjGZCakG9Ypz3SkYGl-28" value="Display each value from array1" style="shape=parallelogram;perimeter=parallelogramPerimeter;whiteSpace=wrap;html=1;fixedSize=1;" vertex="1" parent="mvioNwK95yMqdUQ73LqQ-36">
          <mxGeometry x="245" y="1670" width="120" height="60" as="geometry" />
        </mxCell>
        <mxCell id="gRQjGZCakG9Ypz3SkYGl-29" style="edgeStyle=orthogonalEdgeStyle;rounded=0;orthogonalLoop=1;jettySize=auto;html=1;" edge="1" parent="mvioNwK95yMqdUQ73LqQ-36" source="gRQjGZCakG9Ypz3SkYGl-30">
          <mxGeometry relative="1" as="geometry">
            <mxPoint x="305" y="1950" as="targetPoint" />
          </mxGeometry>
        </mxCell>
        <mxCell id="gRQjGZCakG9Ypz3SkYGl-30" value="Display &quot;Array2 : &quot;" style="shape=parallelogram;perimeter=parallelogramPerimeter;whiteSpace=wrap;html=1;fixedSize=1;" vertex="1" parent="mvioNwK95yMqdUQ73LqQ-36">
          <mxGeometry x="245" y="1830" width="120" height="60" as="geometry" />
        </mxCell>
        <mxCell id="gRQjGZCakG9Ypz3SkYGl-34" style="edgeStyle=orthogonalEdgeStyle;rounded=0;orthogonalLoop=1;jettySize=auto;html=1;" edge="1" parent="mvioNwK95yMqdUQ73LqQ-36" source="gRQjGZCakG9Ypz3SkYGl-31">
          <mxGeometry relative="1" as="geometry">
            <mxPoint x="300" y="2080" as="targetPoint" />
          </mxGeometry>
        </mxCell>
        <mxCell id="gRQjGZCakG9Ypz3SkYGl-31" value="Display each value from array2" style="shape=parallelogram;perimeter=parallelogramPerimeter;whiteSpace=wrap;html=1;fixedSize=1;" vertex="1" parent="mvioNwK95yMqdUQ73LqQ-36">
          <mxGeometry x="240" y="1950" width="120" height="60" as="geometry" />
        </mxCell>
        <mxCell id="gRQjGZCakG9Ypz3SkYGl-36" style="edgeStyle=orthogonalEdgeStyle;rounded=0;orthogonalLoop=1;jettySize=auto;html=1;" edge="1" parent="mvioNwK95yMqdUQ73LqQ-36" source="gRQjGZCakG9Ypz3SkYGl-35">
          <mxGeometry relative="1" as="geometry">
            <mxPoint x="300" y="2210" as="targetPoint" />
          </mxGeometry>
        </mxCell>
        <mxCell id="gRQjGZCakG9Ypz3SkYGl-35" value="store value array2 position to array1 position" style="rounded=0;whiteSpace=wrap;html=1;" vertex="1" parent="mvioNwK95yMqdUQ73LqQ-36">
          <mxGeometry x="240" y="2080" width="120" height="60" as="geometry" />
        </mxCell>
        <mxCell id="gRQjGZCakG9Ypz3SkYGl-38" style="edgeStyle=orthogonalEdgeStyle;rounded=0;orthogonalLoop=1;jettySize=auto;html=1;" edge="1" parent="mvioNwK95yMqdUQ73LqQ-36" source="gRQjGZCakG9Ypz3SkYGl-37">
          <mxGeometry relative="1" as="geometry">
            <mxPoint x="297" y="2350" as="targetPoint" />
          </mxGeometry>
        </mxCell>
        <mxCell id="gRQjGZCakG9Ypz3SkYGl-37" value="Display &quot;Array2 &quot;" style="shape=parallelogram;perimeter=parallelogramPerimeter;whiteSpace=wrap;html=1;fixedSize=1;" vertex="1" parent="mvioNwK95yMqdUQ73LqQ-36">
          <mxGeometry x="237" y="2210" width="120" height="60" as="geometry" />
        </mxCell>
        <mxCell id="gRQjGZCakG9Ypz3SkYGl-43" style="edgeStyle=orthogonalEdgeStyle;rounded=0;orthogonalLoop=1;jettySize=auto;html=1;" edge="1" parent="mvioNwK95yMqdUQ73LqQ-36" source="gRQjGZCakG9Ypz3SkYGl-39">
          <mxGeometry relative="1" as="geometry">
            <mxPoint x="300" y="2510" as="targetPoint" />
          </mxGeometry>
        </mxCell>
        <mxCell id="gRQjGZCakG9Ypz3SkYGl-39" value="Display each value from array2&lt;div&gt;this is copy from arra1 already&lt;/div&gt;" style="shape=parallelogram;perimeter=parallelogramPerimeter;whiteSpace=wrap;html=1;fixedSize=1;" vertex="1" parent="mvioNwK95yMqdUQ73LqQ-36">
          <mxGeometry x="218.5" y="2350" width="163" height="90" as="geometry" />
        </mxCell>
        <mxCell id="gRQjGZCakG9Ypz3SkYGl-40" value="No" style="text;html=1;align=center;verticalAlign=middle;resizable=0;points=[];autosize=1;strokeColor=none;fillColor=none;" vertex="1" parent="mvioNwK95yMqdUQ73LqQ-36">
          <mxGeometry x="365" y="870" width="40" height="30" as="geometry" />
        </mxCell>
        <mxCell id="gRQjGZCakG9Ypz3SkYGl-41" value="Yes" style="text;html=1;align=center;verticalAlign=middle;resizable=0;points=[];autosize=1;strokeColor=none;fillColor=none;" vertex="1" parent="mvioNwK95yMqdUQ73LqQ-36">
          <mxGeometry x="265" y="980" width="40" height="30" as="geometry" />
        </mxCell>
        <mxCell id="gRQjGZCakG9Ypz3SkYGl-42" value="&lt;font data-font-src=&quot;https://fonts.googleapis.com/css?family=Sarabun&quot; face=&quot;Sarabun&quot;&gt;END&lt;/font&gt;" style="ellipse;whiteSpace=wrap;html=1;" vertex="1" parent="mvioNwK95yMqdUQ73LqQ-36">
          <mxGeometry x="237" y="2510" width="130" height="30" as="geometry" />
        </mxCell>
        <mxCell id="gRQjGZCakG9Ypz3SkYGl-11" value="Yes" style="text;html=1;align=center;verticalAlign=middle;resizable=0;points=[];autosize=1;strokeColor=none;fillColor=none;" vertex="1" parent="WIyWlLk6GJQsqaUBKTNV-1">
          <mxGeometry x="-460" y="748" width="40" height="30" as="geometry" />
        </mxCell>
      </root>
    </mxGraphModel>
  </diagram>
</mxfile>
